<mxfile host="65bd71144e">
    <diagram id="rR8fdMio5X1leefnbeaY" name="Итоговое задание">
        <mxGraphModel dx="1093" dy="506" grid="1" gridSize="10" guides="1" tooltips="1" connect="1" arrows="1" fold="1" page="1" pageScale="1" pageWidth="827" pageHeight="1169" math="0" shadow="0">
            <root>
                <mxCell id="0"/>
                <mxCell id="1" parent="0"/>
                <mxCell id="9" value="" style="edgeStyle=none;html=1;" parent="1" target="8" edge="1">
                    <mxGeometry relative="1" as="geometry">
                        <mxPoint x="335.93361811720274" y="79.77872705734171" as="sourcePoint"/>
                    </mxGeometry>
                </mxCell>
                <mxCell id="29" value="" style="edgeStyle=none;html=1;" edge="1" parent="1" source="2" target="8">
                    <mxGeometry relative="1" as="geometry"/>
                </mxCell>
                <mxCell id="2" value="Начало" style="ellipse;whiteSpace=wrap;html=1;" parent="1" vertex="1">
                    <mxGeometry x="290" y="10" width="80" height="40" as="geometry"/>
                </mxCell>
                <mxCell id="4" value="Конец" style="ellipse;whiteSpace=wrap;html=1;" parent="1" vertex="1">
                    <mxGeometry x="670" y="215" width="80" height="40" as="geometry"/>
                </mxCell>
                <mxCell id="11" value="" style="edgeStyle=none;html=1;" parent="1" source="8" target="10" edge="1">
                    <mxGeometry relative="1" as="geometry"/>
                </mxCell>
                <mxCell id="8" value="incomingArray = {&quot;one&quot;,&quot;two&quot;,&quot;three&quot;};&lt;br&gt;exitingArray = new string[incomingArray.Length];&lt;br&gt;index = 0;&lt;br&gt;random = 0;" style="shape=parallelogram;perimeter=parallelogramPerimeter;whiteSpace=wrap;html=1;fixedSize=1;" parent="1" vertex="1">
                    <mxGeometry x="177.5" y="70" width="305" height="80" as="geometry"/>
                </mxCell>
                <mxCell id="13" value="" style="edgeStyle=none;html=1;" parent="1" source="10" target="12" edge="1">
                    <mxGeometry relative="1" as="geometry"/>
                </mxCell>
                <mxCell id="16" value="" style="edgeStyle=none;html=1;" parent="1" source="10" target="15" edge="1">
                    <mxGeometry relative="1" as="geometry"/>
                </mxCell>
                <mxCell id="10" value="index &amp;lt; incomingArray.Length" style="rhombus;whiteSpace=wrap;html=1;" parent="1" vertex="1">
                    <mxGeometry x="230" y="190" width="200" height="90" as="geometry"/>
                </mxCell>
                <mxCell id="14" value="" style="edgeStyle=none;html=1;" parent="1" source="12" target="4" edge="1">
                    <mxGeometry relative="1" as="geometry"/>
                </mxCell>
                <mxCell id="12" value="Print(incomingArray)&lt;br&gt;Print(exitingArray)" style="whiteSpace=wrap;html=1;" parent="1" vertex="1">
                    <mxGeometry x="500" y="205" width="120" height="60" as="geometry"/>
                </mxCell>
                <mxCell id="18" value="" style="edgeStyle=none;html=1;" parent="1" source="15" target="17" edge="1">
                    <mxGeometry relative="1" as="geometry"/>
                </mxCell>
                <mxCell id="15" value="&lt;span&gt;random = incomingArray[index]&lt;br&gt;&lt;/span&gt;" style="whiteSpace=wrap;html=1;" parent="1" vertex="1">
                    <mxGeometry x="230" y="310" width="200" height="50" as="geometry"/>
                </mxCell>
                <mxCell id="20" value="" style="edgeStyle=none;html=1;" parent="1" source="17" target="19" edge="1">
                    <mxGeometry relative="1" as="geometry"/>
                </mxCell>
                <mxCell id="26" value="" style="edgeStyle=none;html=1;" parent="1" source="17" target="25" edge="1">
                    <mxGeometry relative="1" as="geometry"/>
                </mxCell>
                <mxCell id="17" value="random.Length &amp;lt;= 3" style="rhombus;whiteSpace=wrap;html=1;" parent="1" vertex="1">
                    <mxGeometry x="240" y="390" width="180" height="80" as="geometry"/>
                </mxCell>
                <mxCell id="27" style="edgeStyle=none;html=1;entryX=1;entryY=0.5;entryDx=0;entryDy=0;" parent="1" source="19" target="25" edge="1">
                    <mxGeometry relative="1" as="geometry">
                        <Array as="points">
                            <mxPoint x="580" y="540"/>
                        </Array>
                    </mxGeometry>
                </mxCell>
                <mxCell id="19" value="exitingArray[index] = incomingArray[index]" style="whiteSpace=wrap;html=1;" parent="1" vertex="1">
                    <mxGeometry x="460" y="400" width="240" height="60" as="geometry"/>
                </mxCell>
                <mxCell id="21" value="Yes" style="text;html=1;align=center;verticalAlign=middle;resizable=0;points=[];autosize=1;strokeColor=none;fillColor=none;" parent="1" vertex="1">
                    <mxGeometry x="420" y="400" width="40" height="20" as="geometry"/>
                </mxCell>
                <mxCell id="24" value="No" style="text;html=1;align=center;verticalAlign=middle;resizable=0;points=[];autosize=1;strokeColor=none;fillColor=none;" parent="1" vertex="1">
                    <mxGeometry x="330" y="480" width="30" height="20" as="geometry"/>
                </mxCell>
                <mxCell id="28" style="edgeStyle=none;html=1;entryX=0;entryY=0.5;entryDx=0;entryDy=0;" parent="1" source="25" target="10" edge="1">
                    <mxGeometry relative="1" as="geometry">
                        <Array as="points">
                            <mxPoint x="200" y="540"/>
                            <mxPoint x="200" y="235"/>
                        </Array>
                    </mxGeometry>
                </mxCell>
                <mxCell id="25" value="index++" style="whiteSpace=wrap;html=1;" parent="1" vertex="1">
                    <mxGeometry x="270" y="510" width="120" height="60" as="geometry"/>
                </mxCell>
            </root>
        </mxGraphModel>
    </diagram>
</mxfile>